<svg xmlns="http://www.w3.org/2000/svg" width="23.115" height="32.309" viewBox="0 0 23.115 32.309">
  <g id="_x38__x2C__Couple__x2C__love_x2C__marriage_x2C__heart" transform="translate(-90.274 -135.472)">
    <g id="XMLID_15867_" transform="translate(77.685 114.269)">
      <path id="XMLID_15868_" d="M278.367,168.988a7.476,7.476,0,0,0,3.8,6.518,7.5,7.5,0,1,0-3.8-6.518Z" transform="translate(-262.023 -140.285)" fill="#aab7bf"/>
      <path id="XMLID_15873_" d="M241.272,282.173a7.587,7.587,0,0,0-5.929-2.638h-8.885c-3.923,0-7.115,2.645-7.115,5.9v10.1h4.075v-9.052a.51.51,0,0,1,1,0v9.052h12.96v-9.052a.51.51,0,0,1,1,0v9.052h4.075v-10.1A5.18,5.18,0,0,0,241.272,282.173Z" transform="translate(-206.754 -242.023)" fill="#aab7bf"/>
    </g>
  </g>
</svg>
