<svg xmlns="http://www.w3.org/2000/svg" width="33.36" height="48" viewBox="0 0 33.36 48">
  <g id="_x38__x2C__Couple__x2C__love_x2C__marriage_x2C__heart" transform="translate(-99.668 -121.597)">
    <g id="XMLID_15867_" transform="translate(99.668 121.597)">
      <path id="XMLID_15868_" d="M278.367,169.925a8.411,8.411,0,0,0,4.274,7.332,8.433,8.433,0,1,0-4.274-7.332Z" transform="translate(-269.207 -161.488)" fill="#aab7bf"/>
      <path id="XMLID_15873_" d="M250.993,284.129a10.255,10.255,0,0,0-8.558-4.594H229.611A10.28,10.28,0,0,0,219.343,289.8v17.6h5.881V291.636a.723.723,0,1,1,1.446,0V307.4h18.705V291.636a.723.723,0,1,1,1.446,0V307.4H252.7V289.8A10.218,10.218,0,0,0,250.993,284.129Z" transform="translate(-219.343 -259.4)" fill="#aab7bf"/>
    </g>
  </g>
</svg>
