<svg xmlns="http://www.w3.org/2000/svg" width="42" height="42" viewBox="0 0 42 42">
  <g id="all-icon" transform="translate(0 0)" opacity="0.7">
    <path id="path" d="M7.8,9.561H3.2A2.167,2.167,0,0,1,1,7.468V3.093A2.167,2.167,0,0,1,3.2,1H7.9A2.146,2.146,0,0,1,10,3.093V7.563A2.155,2.155,0,0,1,7.8,9.561Z" fill="#bdcbe2" stroke="#009eff" stroke-linecap="round" stroke-linejoin="round" stroke-miterlimit="10" stroke-width="2"/>
    <path id="path-2" data-name="path" d="M23.8,9.561H19.1A2.146,2.146,0,0,1,17,7.468V3.093A2.167,2.167,0,0,1,19.2,1h4.7A2.146,2.146,0,0,1,26,3.093V7.563A2.155,2.155,0,0,1,23.8,9.561Z" transform="translate(-0.548)" fill="#bdcbe2" stroke="#009eff" stroke-linecap="round" stroke-linejoin="round" stroke-miterlimit="10" stroke-width="2"/>
    <path id="path-3" data-name="path" d="M39.8,9.561H35.1A2.146,2.146,0,0,1,33,7.468V3.093A2.167,2.167,0,0,1,35.2,1h4.7A2.146,2.146,0,0,1,42,3.093V7.563A2.155,2.155,0,0,1,39.8,9.561Z" transform="translate(-1.1)" fill="#bdcbe2" stroke="#009eff" stroke-linecap="round" stroke-linejoin="round" stroke-miterlimit="10" stroke-width="2"/>
    <path id="path-4" data-name="path" d="M7.8,25.561H3.2A2.167,2.167,0,0,1,1,23.468V19a2.155,2.155,0,0,1,2.2-2H7.9A2.146,2.146,0,0,1,10,19.093v4.471A2.155,2.155,0,0,1,7.8,25.561Z" transform="translate(0 -0.28)" fill="#bdcbe2" stroke="#009eff" stroke-linecap="round" stroke-linejoin="round" stroke-miterlimit="10" stroke-width="2"/>
    <path id="path-5" data-name="path" d="M23.8,25.556H19.1A2.146,2.146,0,0,1,17,23.463V18.993A2.167,2.167,0,0,1,19.2,16.9h4.7a2.167,2.167,0,0,1,2.2,2.093v4.471A2.331,2.331,0,0,1,23.8,25.556Z" transform="translate(-0.55 -0.277)" fill="#bdcbe2" stroke="#009eff" stroke-linecap="round" stroke-linejoin="round" stroke-miterlimit="10" stroke-width="2"/>
    <path id="path-6" data-name="path" d="M39.8,25.556H35.1A2.146,2.146,0,0,1,33,23.463V18.993A2.167,2.167,0,0,1,35.2,16.9h4.7a2.167,2.167,0,0,1,2.2,2.093v4.471A2.331,2.331,0,0,1,39.8,25.556Z" transform="translate(-1.1 -0.277)" fill="#bdcbe2" stroke="#009eff" stroke-linecap="round" stroke-linejoin="round" stroke-miterlimit="10" stroke-width="2"/>
    <path id="path-7" data-name="path" d="M7.8,41.561H3.2A2.167,2.167,0,0,1,1,39.468V35a2.155,2.155,0,0,1,2.2-2H7.9A2.146,2.146,0,0,1,10,35.093v4.471A2.155,2.155,0,0,1,7.8,41.561Z" transform="translate(0 -0.561)" fill="#bdcbe2" stroke="#009eff" stroke-linecap="round" stroke-linejoin="round" stroke-miterlimit="10" stroke-width="2"/>
    <path id="path-8" data-name="path" d="M23.8,41.556H19.1A2.146,2.146,0,0,1,17,39.463V34.993A2.167,2.167,0,0,1,19.2,32.9h4.7a2.167,2.167,0,0,1,2.2,2.093v4.471A2.331,2.331,0,0,1,23.8,41.556Z" transform="translate(-0.55 -0.556)" fill="#bdcbe2" stroke="#009eff" stroke-linecap="round" stroke-linejoin="round" stroke-miterlimit="10" stroke-width="2"/>
    <path id="path-9" data-name="path" d="M39.8,41.556H35.1A2.146,2.146,0,0,1,33,39.463V34.993A2.167,2.167,0,0,1,35.2,32.9h4.7a2.167,2.167,0,0,1,2.2,2.093v4.471A2.331,2.331,0,0,1,39.8,41.556Z" transform="translate(-1.1 -0.556)" fill="#bdcae2" stroke="#009eff" stroke-linecap="round" stroke-linejoin="round" stroke-miterlimit="10" stroke-width="2"/>
  </g>
</svg>
