<svg id="architecture" xmlns="http://www.w3.org/2000/svg" width="41.5" height="39" viewBox="0 0 41.5 39">
  <g id="Skycraper" transform="translate(-3 -3)" opacity="0.7">
    <path id="Path_1218" data-name="Path 1218" d="M21.716,54.345h14.31a.674.674,0,1,0,0-1.345H21.716a.674.674,0,1,0,0,1.345Z" transform="translate(-5.121 -16.379)" fill="#5ebbe0"/>
    <path id="Path_1219" data-name="Path 1219" d="M23.716,49.345H35.164a.674.674,0,1,0,0-1.345H23.716a.674.674,0,1,0,0,1.345Z" transform="translate(-5.69 -14.741)" fill="#5ebbe0"/>
    <path id="Path_1220" data-name="Path 1220" d="M25.716,44.345H34.3A.674.674,0,1,0,34.3,43H25.716a.674.674,0,1,0,0,1.345Z" transform="translate(-6.259 -13.103)" fill="#5ebbe0"/>
    <path id="Path_1221" data-name="Path 1221" d="M27.716,39.345H33.44a.674.674,0,1,0,0-1.345H27.716a.674.674,0,1,0,0,1.345Z" transform="translate(-6.828 -11.465)" fill="#5ebbe0"/>
    <path id="Path_1222" data-name="Path 1222" d="M28.716,34.345h4.293a.674.674,0,1,0,0-1.345H28.716a.674.674,0,1,0,0,1.345Z" transform="translate(-7.112 -9.827)" fill="#5ebbe0"/>
    <path id="Path_1223" data-name="Path 1223" d="M43.784,40.656H38.7L35.556,11.674a.664.664,0,0,0-.279-.464L24.186,3.141h0a.854.854,0,0,0-.193-.1.759.759,0,0,0-.487,0,.73.73,0,0,0-.193.1h0L12.223,11.21a.663.663,0,0,0-.272.464L8.8,40.656H3.716a.674.674,0,1,0,0,1.345H43.784a.674.674,0,1,0,0-1.345Zm-9.538,0H13.253L23.75,6.12ZM13.339,12.1l9.123-6.637-10.7,35.194H10.234Zm22.4,28.558L25.038,5.461,34.161,12.1l3.105,28.558Z" fill="#5ebbe0"/>
  </g>
</svg>
