<svg id="children" xmlns="http://www.w3.org/2000/svg" width="50.08" height="32.309" viewBox="0 0 50.08 32.309">
  <g id="XMLID_15867_" transform="translate(-1.057 -21.512)">
    <path id="XMLID_15868_" d="M278.367,168.988a7.476,7.476,0,0,0,3.8,6.518,7.5,7.5,0,1,0-3.8-6.518Z" transform="translate(-273.555 -139.976)" fill="#aab7bf"/>
    <path id="XMLID_15868_2" data-name="XMLID_15868_" d="M278.367,168.988a7.476,7.476,0,0,0,3.8,6.518,7.5,7.5,0,1,0-3.8-6.518Z" transform="translate(-246.59 -139.976)" fill="#aab7bf"/>
    <path id="XMLID_15873_" d="M241.272,282.173a7.587,7.587,0,0,0-5.929-2.638h-8.885c-3.923,0-7.115,2.645-7.115,5.9v10.1h4.075v-9.052a.51.51,0,0,1,1,0v9.052h12.96v-9.052a.51.51,0,0,1,1,0v9.052h4.075v-10.1A5.18,5.18,0,0,0,241.272,282.173Z" transform="translate(-218.286 -241.714)" fill="#aab7bf"/>
    <path id="XMLID_15873_2" data-name="XMLID_15873_" d="M241.272,282.173a7.587,7.587,0,0,0-5.929-2.638h-8.885c-3.923,0-7.115,2.645-7.115,5.9v10.1h4.075v-9.052a.51.51,0,0,1,1,0v9.052h12.96v-9.052a.51.51,0,0,1,1,0v9.052h4.075v-10.1A5.18,5.18,0,0,0,241.272,282.173Z" transform="translate(-191.321 -241.714)" fill="#aab7bf"/>
  </g>
</svg>
