<svg xmlns="http://www.w3.org/2000/svg" width="57.879" height="61.512" viewBox="0 0 57.879 61.512">
  <g id="citywalk" transform="translate(1.265 1)">
    <g id="iconfinder_Construction_city_landscape_buildings_6588951" transform="translate(-4 -3)" opacity="0.7">
      <path id="Path_1215" data-name="Path 1215" d="M57.39,31.557C49.159,29.051,39.593,27,30.695,27A81.183,81.183,0,0,0,4,31.557" transform="translate(0 30.69)" fill="none" stroke="#009eff" stroke-linecap="round" stroke-linejoin="round" stroke-miterlimit="10" stroke-width="2"/>
      <path id="Path_1216" data-name="Path 1216" d="M5,48.46V32.509H16.123V18.836L27.246,12V25.672h8.9v6.836h6.674V21.115l11.123,6.836V48.46" transform="translate(1.225 11.509)" fill="none" stroke="#009eff" stroke-linecap="round" stroke-linejoin="round" stroke-miterlimit="10" stroke-width="2"/>
      <path id="Path_1217" data-name="Path 1217" d="M33.572,3a9.035,9.035,0,0,0-8.9,9.115H22.449a4.559,4.559,0,0,0,0,9.115H33.572a9.035,9.035,0,0,0,8.9-9.115A9.035,9.035,0,0,0,33.572,3Z" transform="translate(17.144)" fill="#d5e0f2" stroke="#009eff" stroke-linecap="round" stroke-linejoin="round" stroke-miterlimit="10" stroke-width="2"/>
      <line id="Line_1" data-name="Line 1" y1="9.391" transform="translate(44.748 41.609)" fill="none" stroke="#009eff" stroke-linecap="round" stroke-linejoin="round" stroke-miterlimit="10" stroke-width="2"/>
      <line id="Line_2" data-name="Line 2" y1="6.261" transform="translate(17.243 44.74)" fill="none" stroke="#009eff" stroke-linecap="round" stroke-linejoin="round" stroke-miterlimit="10" stroke-width="2"/>
    </g>
  </g>
</svg>
