<svg id="food" xmlns="http://www.w3.org/2000/svg" width="50" height="50" viewBox="0 0 50 50">
  <g id="_x36_38_x2C__Fastfood_x2C__food_x2C__hamburger_x2C__usa" transform="translate(0 0)" opacity="0.7">
    <g id="Group_1217" data-name="Group 1217">
      <g id="Group_1216" data-name="Group 1216">
        <g id="Group_1215" data-name="Group 1215">
          <g id="Group_1202" data-name="Group 1202" transform="translate(2.271 41.273)">
            <path id="Path_1202" data-name="Path 1202" d="M77.707,404.683H40.445a4.222,4.222,0,0,1-4.1-4.327v-3.309a1.063,1.063,0,0,1,1.033-1.091H80.772a1.063,1.063,0,0,1,1.033,1.091v3.309A4.222,4.222,0,0,1,77.707,404.683Zm-39.294-6.545v2.218a2.093,2.093,0,0,0,2.032,2.145H77.707a2.093,2.093,0,0,0,2.032-2.145v-2.218Z" transform="translate(-36.347 -395.956)" fill="#009eff"/>
          </g>
          <g id="Group_1203" data-name="Group 1203" transform="translate(2.271 19.49)">
            <path id="Path_1203" data-name="Path 1203" d="M80.773,214.684H37.381a1.063,1.063,0,0,1-1.033-1.091v-4.327a3.229,3.229,0,0,1,3.134-3.309H78.672a3.229,3.229,0,0,1,3.134,3.309v4.327A1.063,1.063,0,0,1,80.773,214.684ZM38.414,212.5H79.74v-3.236a1.1,1.1,0,0,0-1.068-1.127H39.482a1.1,1.1,0,0,0-1.068,1.127V212.5Z" transform="translate(-36.348 -205.957)" fill="#009eff"/>
          </g>
          <g id="Group_1204" data-name="Group 1204" transform="translate(2.271 31.455)">
            <path id="Path_1204" data-name="Path 1204" d="M76.71,317.956H41.445a5.251,5.251,0,0,1-5.1-5.382v-1.236a5.251,5.251,0,0,1,5.1-5.382h3.814a1.817,1.817,0,0,1,1.429.707l4.124,5.226,4.124-5.226a1.817,1.817,0,0,1,1.429-.707H76.709a5.251,5.251,0,0,1,5.1,5.382v1.236A5.251,5.251,0,0,1,76.71,317.956Zm-35.265-9.818a3.122,3.122,0,0,0-3.031,3.2v1.236a3.122,3.122,0,0,0,3.031,3.2H76.71a3.122,3.122,0,0,0,3.031-3.2v-1.236a3.122,3.122,0,0,0-3.031-3.2H56.462l-4.221,5.348a1.8,1.8,0,0,1-2.857,0l-4.221-5.348Z" transform="translate(-36.348 -305.956)" fill="#009eff"/>
          </g>
          <g id="Group_1205" data-name="Group 1205" transform="translate(0 26.529)">
            <path id="Path_1205" data-name="Path 1205" d="M33.014,279.047a1.023,1.023,0,0,1-.8-.393l-4.9-6.153H19.472a3.276,3.276,0,0,1,0-6.545h43.75a3.276,3.276,0,0,1,0,6.545H38.71l-4.9,6.153A1.024,1.024,0,0,1,33.014,279.047ZM19.472,268.138a1.092,1.092,0,0,0,0,2.182h8.333a1.023,1.023,0,0,1,.8.393l4.408,5.54,4.408-5.54a1.023,1.023,0,0,1,.8-.393h25a1.092,1.092,0,0,0,0-2.182Z" transform="translate(-16.347 -265.956)" fill="#009eff"/>
          </g>
          <g id="Group_1206" data-name="Group 1206" transform="translate(4.542)">
            <path id="Path_1206" data-name="Path 1206" d="M96.242,56.684H57.371a1.059,1.059,0,0,1-1.023-1.091,19.117,19.117,0,0,1,6.033-13.926,21.077,21.077,0,0,1,28.85,0,19.117,19.117,0,0,1,6.033,13.926A1.059,1.059,0,0,1,96.242,56.684ZM58.429,54.5H95.183c-.6-9.118-8.611-16.363-18.377-16.363S59.026,45.384,58.429,54.5Z" transform="translate(-56.348 -35.957)" fill="#009eff"/>
          </g>
          <g id="Group_1207" data-name="Group 1207" transform="translate(29.961 12.55)">
            <path id="Path_1207" data-name="Path 1207" d="M307.484,150.321a1.156,1.156,0,0,1-.8-.32,1.061,1.061,0,0,1,0-1.543l2.271-2.182a1.169,1.169,0,0,1,1.606,0,1.061,1.061,0,0,1,0,1.543L308.287,150A1.157,1.157,0,0,1,307.484,150.321Z" transform="translate(-306.348 -145.957)" fill="#009eff"/>
          </g>
          <g id="Group_1208" data-name="Group 1208" transform="translate(22.729 4.364)">
            <path id="Path_1208" data-name="Path 1208" d="M237.483,80.321a1.156,1.156,0,0,1-.8-.32,1.061,1.061,0,0,1,0-1.543l2.271-2.182a1.169,1.169,0,0,1,1.606,0,1.061,1.061,0,0,1,0,1.543L238.285,80A1.156,1.156,0,0,1,237.483,80.321Z" transform="translate(-236.347 -75.958)" fill="#009eff"/>
          </g>
          <g id="Group_1209" data-name="Group 1209" transform="translate(28.928 6.545)">
            <path id="Path_1209" data-name="Path 1209" d="M297.484,100.321a1.156,1.156,0,0,1-.8-.32,1.061,1.061,0,0,1,0-1.543l2.271-2.182a1.169,1.169,0,0,1,1.606,0,1.061,1.061,0,0,1,0,1.543L298.287,100A1.157,1.157,0,0,1,297.484,100.321Z" transform="translate(-296.348 -95.957)" fill="#009eff"/>
          </g>
          <g id="Group_1210" data-name="Group 1210" transform="translate(22.729 11.409)">
            <path id="Path_1210" data-name="Path 1210" d="M237.483,140.321a1.156,1.156,0,0,1-.8-.32,1.061,1.061,0,0,1,0-1.543l2.271-2.182a1.169,1.169,0,0,1,1.606,0,1.061,1.061,0,0,1,0,1.543L238.285,140A1.156,1.156,0,0,1,237.483,140.321Z" transform="translate(-236.347 -135.958)" fill="#009eff"/>
          </g>
          <g id="Group_1211" data-name="Group 1211" transform="translate(15.497 12.55)">
            <path id="Path_1211" data-name="Path 1211" d="M167.483,150.321a1.156,1.156,0,0,1-.8-.32,1.061,1.061,0,0,1,0-1.543l2.271-2.182a1.169,1.169,0,0,1,1.606,0,1.061,1.061,0,0,1,0,1.543L168.286,150A1.157,1.157,0,0,1,167.483,150.321Z" transform="translate(-166.347 -145.957)" fill="#009eff"/>
          </g>
          <g id="Group_1212" data-name="Group 1212" transform="translate(15.497 6.545)">
            <path id="Path_1212" data-name="Path 1212" d="M167.483,100.321a1.156,1.156,0,0,1-.8-.32,1.061,1.061,0,0,1,0-1.543l2.271-2.182a1.169,1.169,0,0,1,1.606,0,1.061,1.061,0,0,1,0,1.543L168.286,100A1.157,1.157,0,0,1,167.483,100.321Z" transform="translate(-166.347 -95.957)" fill="#009eff"/>
          </g>
          <g id="Group_1213" data-name="Group 1213" transform="translate(8.265 12.55)">
            <path id="Path_1213" data-name="Path 1213" d="M97.483,150.321a1.156,1.156,0,0,1-.8-.32,1.061,1.061,0,0,1,0-1.543l2.271-2.182a1.169,1.169,0,0,1,1.606,0,1.061,1.061,0,0,1,0,1.543L98.286,150A1.157,1.157,0,0,1,97.483,150.321Z" transform="translate(-96.347 -145.957)" fill="#009eff"/>
          </g>
          <g id="Group_1214" data-name="Group 1214" transform="translate(36.16 12.55)">
            <path id="Path_1214" data-name="Path 1214" d="M367.484,150.321a1.156,1.156,0,0,1-.8-.32,1.061,1.061,0,0,1,0-1.543l2.271-2.182a1.169,1.169,0,0,1,1.606,0,1.061,1.061,0,0,1,0,1.543L368.287,150A1.157,1.157,0,0,1,367.484,150.321Z" transform="translate(-366.348 -145.957)" fill="#009eff"/>
          </g>
        </g>
      </g>
    </g>
  </g>
</svg>
