<svg id="friends" xmlns="http://www.w3.org/2000/svg" width="55" height="55" viewBox="0 0 55 55">
  <path id="Path_1242" data-name="Path 1242" d="M10.167,56H46.833V51.417H56V37.667A14.92,14.92,0,0,0,45.5,23.434a10.3,10.3,0,0,0-5.54-19,10.2,10.2,0,0,0-2.9.427,11.408,11.408,0,0,0-17.116,0,10.2,10.2,0,0,0-2.9-.427,10.3,10.3,0,0,0-5.54,19A14.92,14.92,0,0,0,1,37.667v13.75h9.167Zm34.375-2.292H12.458V36.521c0-.383.024-.761.057-1.136.011-.123.026-.244.04-.367.031-.259.071-.514.118-.768.024-.128.044-.258.071-.385.071-.329.155-.652.25-.972.048-.158.105-.312.159-.467q.093-.272.2-.537t.213-.508c.073-.164.154-.324.234-.485q.175-.351.371-.689c.115-.2.229-.392.353-.581.1-.147.2-.289.3-.432s.219-.3.333-.446.211-.267.322-.4c.144-.168.294-.331.447-.492s.285-.3.433-.438c.182-.174.367-.345.559-.509.126-.107.257-.209.387-.311.15-.117.3-.231.457-.341s.289-.205.439-.3.307-.189.462-.281q.438-.26.9-.485c.155-.076.307-.155.465-.225l.184-.083a12.545,12.545,0,0,1,4.849-.972h6.875a12.514,12.514,0,0,1,4.848.973l.184.083c.158.069.311.149.465.225q.462.225.9.485c.156.092.312.182.462.281s.294.2.439.3.307.225.457.341c.131.1.261.2.387.311.192.163.377.335.559.509.149.142.292.289.433.438s.3.323.447.492c.11.129.217.262.322.4s.226.294.333.446.206.284.3.432c.124.189.239.385.353.581.131.226.254.456.371.689.08.16.16.321.234.485s.146.337.213.508.134.356.2.537c.054.156.111.311.159.467q.144.478.25.972c.028.127.048.257.071.385.046.253.087.51.118.768.015.121.03.244.04.367.034.374.058.752.058,1.134V53.708Zm9.167-16.042V49.125H46.833v-12.6a14.944,14.944,0,0,0-.091-1.61c-.014-.125-.04-.246-.056-.37-.055-.409-.119-.816-.206-1.213-.029-.131-.068-.257-.1-.386-.1-.388-.2-.772-.329-1.148-.042-.127-.092-.251-.137-.376-.135-.37-.283-.734-.446-1.09-.057-.125-.118-.249-.18-.371q-.256-.521-.551-1.016c-.072-.121-.144-.243-.221-.363-.206-.324-.425-.638-.654-.945-.084-.112-.164-.226-.251-.336-.251-.317-.518-.621-.794-.917-.078-.084-.15-.172-.23-.253a14.83,14.83,0,0,0-1.139-1.058A12.618,12.618,0,0,1,53.708,37.667ZM38.5,6.868a7.843,7.843,0,0,1,1.463-.139A8.021,8.021,0,1,1,35.574,21.46c.017-.013.031-.029.047-.042a11.507,11.507,0,0,0,2.52-2.794c.022-.034.041-.069.063-.1q.3-.474.548-.977c.027-.055.053-.11.079-.165q.229-.476.411-.976c.025-.069.052-.137.076-.206.111-.32.206-.646.289-.979.021-.082.045-.164.063-.246.073-.324.128-.654.173-.989.013-.088.031-.175.04-.265a10.867,10.867,0,0,0,.076-1.259,11.465,11.465,0,0,0-.085-1.338c-.016-.14-.042-.277-.064-.417-.048-.307-.105-.611-.176-.91-.034-.146-.071-.29-.111-.433-.093-.331-.2-.655-.323-.973-.034-.088-.062-.179-.1-.266a11.39,11.39,0,0,0-.595-1.232A.135.135,0,0,1,38.5,6.868ZM35.562,6.62l.07.091c.056.07.107.143.16.214a9.185,9.185,0,0,1,1.345,2.49c.021.057.044.113.063.172a9.1,9.1,0,0,1,.316,1.26c.016.089.029.181.041.272a9.29,9.29,0,0,1,.109,1.339,9,9,0,0,1-.074,1.115c-.01.086-.026.171-.039.257a9.035,9.035,0,0,1-.182.9c-.016.062-.031.125-.048.187a9.2,9.2,0,0,1-.883,2.106l-.021.034a9.054,9.054,0,0,1-.613.917c-.021.026-.04.054-.061.081a9.187,9.187,0,0,1-1.62,1.627l-.109.081a9.232,9.232,0,0,1-.888.6c-.055.032-.107.068-.163.1l-.131.076a9.139,9.139,0,0,1-8.668,0l-.131-.076c-.055-.031-.108-.066-.163-.1a9.232,9.232,0,0,1-.888-.6l-.109-.081a9.265,9.265,0,0,1-1.62-1.627c-.021-.026-.04-.054-.061-.081a9.251,9.251,0,0,1-.613-.917l-.021-.034a9.184,9.184,0,0,1-.885-2.107c-.017-.061-.032-.124-.048-.184a9.123,9.123,0,0,1-.182-.9c-.013-.086-.029-.17-.039-.257a9,9,0,0,1-.074-1.115,9.262,9.262,0,0,1,.109-1.338c.014-.091.025-.181.041-.272a9.135,9.135,0,0,1,.316-1.26c.019-.058.042-.115.063-.172a9.169,9.169,0,0,1,1.345-2.49c.054-.071.1-.146.16-.214l.07-.091a9.154,9.154,0,0,1,14.124,0ZM9.021,14.75a8.03,8.03,0,0,1,8.021-8.021,7.843,7.843,0,0,1,1.463.139l-.01.022A11.485,11.485,0,0,0,17.9,8.12c-.037.088-.064.179-.1.268-.121.317-.23.642-.323.972-.04.143-.077.288-.111.433-.071.3-.128.6-.176.91-.022.139-.047.276-.064.417a10.731,10.731,0,0,0-.011,2.6c.01.089.029.175.04.264.045.335.1.666.173.99.018.082.042.163.063.244.083.332.178.66.289.981.024.07.05.138.076.207q.184.5.411.975c.026.055.053.111.08.166q.251.5.548.977c.022.034.041.069.063.1a11.552,11.552,0,0,0,2.52,2.794l.047.042a8.015,8.015,0,0,1-12.4-6.712ZM3.292,49.125V37.667a12.62,12.62,0,0,1,12.262-12.6,15.062,15.062,0,0,0-1.139,1.058c-.08.081-.152.17-.23.253-.276.3-.543.6-.8.918-.086.109-.166.222-.25.335-.23.307-.449.621-.655.946-.076.12-.148.241-.221.363q-.3.5-.551,1.016c-.061.124-.121.246-.18.371-.164.355-.311.72-.446,1.09-.046.126-.1.249-.137.376-.126.377-.233.761-.33,1.15-.032.128-.07.254-.1.384-.087.4-.151.806-.206,1.216-.017.124-.042.244-.056.369a14.905,14.905,0,0,0-.091,1.609v12.6Z" transform="translate(-1 -1)" fill="#aab7bf"/>
</svg>
