<svg id="iconfinder_ic_pets_48px_3669300" xmlns="http://www.w3.org/2000/svg" width="48" height="44" viewBox="0 0 48 44">
  <circle id="Ellipse_386" data-name="Ellipse 386" cx="5" cy="5" r="5" transform="translate(4 13)" fill="#aab7bf"/>
  <circle id="Ellipse_387" data-name="Ellipse 387" cx="5" cy="5" r="5" transform="translate(13 6)" fill="#aab7bf"/>
  <circle id="Ellipse_388" data-name="Ellipse 388" cx="5" cy="5" r="5" transform="translate(25 6)" fill="#aab7bf"/>
  <circle id="Ellipse_389" data-name="Ellipse 389" cx="5" cy="5" r="5" transform="translate(34 13)" fill="#aab7bf"/>
  <path id="Path_1243" data-name="Path 1243" d="M34.68,29.72c-1.75-2.03-3.21-3.78-4.96-5.81a8.5,8.5,0,0,0-3.49-2.64,4.554,4.554,0,0,0-.66-.17A8.233,8.233,0,0,0,24,21a8.233,8.233,0,0,0-1.57.1,5.335,5.335,0,0,0-.66.17,8.5,8.5,0,0,0-3.49,2.64c-1.75,2.03-3.21,3.78-4.96,5.81-2.62,2.61-5.83,5.52-5.25,9.59a6.3,6.3,0,0,0,4.67,4.65c1.46.29,6.12-.87,11.08-.87.06,0,.12.01.18.01s.12-.01.18-.01c4.96,0,9.62,1.16,11.08.87a6.32,6.32,0,0,0,4.67-4.65c.58-4.07-2.62-6.98-5.25-9.59Z" transform="translate(0 -4)" fill="#aab7bf"/>
  <path id="Path_1244" data-name="Path 1244" d="M0,0H48V44H0Z" fill="none"/>
</svg>
