<svg xmlns="http://www.w3.org/2000/svg" width="55" height="55.5" viewBox="0 0 55 55.5">
  <g id="Layer_1" transform="translate(-1 -1)">
    <path id="Path_1242" data-name="Path 1242" d="M10.167,56.5H46.833V51.875H56V38A15.04,15.04,0,0,0,45.5,23.638a10.416,10.416,0,0,0-5.54-19.169,10.117,10.117,0,0,0-2.9.431,11.34,11.34,0,0,0-17.116,0,10.117,10.117,0,0,0-2.9-.431A10.416,10.416,0,0,0,11.5,23.638,15.04,15.04,0,0,0,1,38V51.875h9.167Zm34.375-2.312H12.458V36.844c0-.386.024-.768.057-1.146.011-.124.026-.246.04-.37.031-.261.071-.519.118-.775.024-.13.044-.26.071-.389.071-.332.155-.658.25-.98.048-.16.105-.314.159-.472q.093-.274.2-.542t.213-.512c.073-.165.154-.327.234-.489q.175-.354.371-.695c.115-.2.229-.4.353-.586.1-.148.2-.291.3-.436s.219-.3.333-.45.211-.269.322-.4c.144-.17.294-.334.447-.5s.285-.3.433-.442c.182-.176.367-.348.559-.513.126-.108.257-.21.387-.313.15-.118.3-.234.457-.345s.289-.207.439-.305.307-.191.462-.283q.438-.262.9-.489c.155-.076.307-.156.465-.227l.184-.083a12.447,12.447,0,0,1,4.849-.98h6.875a12.417,12.417,0,0,1,4.848.982l.184.083c.158.069.311.15.465.227q.462.227.9.489c.156.092.312.184.462.283s.294.2.439.305.307.227.457.345c.131.1.261.206.387.313.192.164.377.338.559.513.149.143.292.291.433.442s.3.326.447.5c.11.131.217.265.322.4s.226.3.333.45.206.287.3.436c.124.191.239.389.353.586.131.228.254.46.371.695.08.162.16.324.234.489s.146.34.213.512.134.36.2.542c.054.157.111.313.159.472q.144.482.25.98c.028.128.048.259.071.389.046.256.087.515.118.775.015.123.03.246.04.37.034.377.058.758.058,1.145V54.188ZM53.708,38V49.563H46.833V36.844a15.215,15.215,0,0,0-.091-1.625c-.014-.126-.04-.249-.056-.373-.055-.413-.119-.823-.206-1.224-.029-.132-.068-.259-.1-.39-.1-.392-.2-.779-.329-1.159-.042-.128-.092-.253-.137-.379-.135-.373-.283-.741-.446-1.1-.057-.126-.118-.251-.18-.375q-.256-.526-.551-1.026c-.072-.123-.144-.245-.221-.367-.206-.327-.425-.644-.654-.954-.084-.113-.164-.228-.251-.339-.251-.32-.518-.627-.794-.925-.078-.084-.15-.173-.23-.256a14.883,14.883,0,0,0-1.139-1.067A12.68,12.68,0,0,1,53.708,38ZM38.5,6.921a7.775,7.775,0,0,1,1.463-.14,8.094,8.094,0,0,1,0,16.188,7.907,7.907,0,0,1-4.384-1.323c.017-.013.031-.029.047-.043a11.576,11.576,0,0,0,2.52-2.819c.022-.035.041-.069.063-.1q.3-.479.548-.986c.027-.056.053-.111.079-.167q.229-.48.411-.985c.025-.069.052-.139.076-.208.111-.323.206-.652.289-.987.021-.083.045-.165.063-.249.073-.327.128-.66.173-1,.013-.089.031-.177.04-.267a11.064,11.064,0,0,0,.076-1.271,11.673,11.673,0,0,0-.085-1.351c-.016-.141-.042-.28-.064-.421-.048-.31-.105-.616-.176-.918-.034-.147-.071-.293-.111-.437-.093-.334-.2-.661-.323-.982-.034-.089-.062-.18-.1-.268a11.539,11.539,0,0,0-.595-1.243A.137.137,0,0,1,38.5,6.921Zm-2.933-.25.07.091c.056.071.107.145.16.216a9.3,9.3,0,0,1,1.345,2.513c.021.058.044.114.063.173a9.246,9.246,0,0,1,.316,1.272c.016.09.029.183.041.274a9.458,9.458,0,0,1,.109,1.352,9.168,9.168,0,0,1-.074,1.125c-.01.087-.026.172-.039.259a9.19,9.19,0,0,1-.182.906c-.016.062-.031.126-.048.188a9.331,9.331,0,0,1-.883,2.125l-.021.035a9.143,9.143,0,0,1-.613.925c-.021.027-.04.054-.061.082a9.23,9.23,0,0,1-1.62,1.642l-.109.082a9.227,9.227,0,0,1-.888.6c-.055.032-.107.068-.163.1l-.131.076a9.066,9.066,0,0,1-8.668,0l-.131-.076c-.055-.031-.108-.067-.163-.1a9.227,9.227,0,0,1-.888-.6l-.109-.082a9.308,9.308,0,0,1-1.62-1.642c-.021-.027-.04-.054-.061-.082a9.342,9.342,0,0,1-.613-.925l-.021-.035a9.313,9.313,0,0,1-.885-2.126c-.017-.061-.032-.125-.048-.186-.077-.3-.135-.6-.182-.908-.013-.087-.029-.171-.039-.259a9.167,9.167,0,0,1-.074-1.125,9.429,9.429,0,0,1,.109-1.351c.014-.091.025-.183.041-.274A9.287,9.287,0,0,1,19.8,9.666c.019-.059.042-.116.063-.173A9.279,9.279,0,0,1,21.208,6.98c.054-.072.1-.147.16-.216l.07-.091a9.1,9.1,0,0,1,14.124,0Zm-26.541,8.2a8.067,8.067,0,0,1,8.021-8.094,7.775,7.775,0,0,1,1.463.14l-.01.022A11.635,11.635,0,0,0,17.9,8.185c-.037.089-.064.18-.1.271-.121.32-.23.648-.323.98-.04.145-.077.29-.111.437-.071.3-.128.608-.176.918-.022.14-.047.279-.064.421a10.926,10.926,0,0,0-.011,2.622c.01.09.029.177.04.266.045.338.1.672.173,1,.018.083.042.164.063.246.083.335.178.666.289.99.024.071.05.139.076.209q.184.5.411.984c.026.056.053.112.08.168q.251.508.548.986c.022.035.041.069.063.1a11.621,11.621,0,0,0,2.52,2.819l.047.043a7.917,7.917,0,0,1-4.383,1.32A8.067,8.067,0,0,1,9.021,14.875ZM3.292,49.563V38A12.682,12.682,0,0,1,15.553,25.286a15.116,15.116,0,0,0-1.139,1.067c-.08.082-.152.171-.23.256-.276.3-.543.6-.8.926-.086.11-.166.224-.25.338-.23.31-.449.627-.655.955-.076.121-.148.243-.221.367q-.3.5-.551,1.026c-.061.125-.121.249-.18.375-.164.358-.311.726-.446,1.1-.046.127-.1.251-.137.379-.126.38-.233.768-.33,1.161-.032.13-.07.257-.1.387-.087.4-.151.813-.206,1.227-.017.125-.042.246-.056.372a15.176,15.176,0,0,0-.091,1.623V49.563Z" fill="#aab7bf"/>
  </g>
</svg>
