<svg xmlns="http://www.w3.org/2000/svg" width="22.025" height="19.563" viewBox="0 0 22.025 19.563">
  <g id="mentors-icon" transform="translate(0.164)">
    <path id="path" d="M10.3,13.6v3l-5,2.3" fill="none" stroke="#f26e22" stroke-linecap="round" stroke-linejoin="round" stroke-miterlimit="10" stroke-width="1"/>
    <path id="path-2" data-name="path" d="M16.1,13.6v3l5.1,2.3" fill="none" stroke="#f26e22" stroke-linecap="round" stroke-linejoin="round" stroke-miterlimit="10" stroke-width="1"/>
    <path id="path-3" data-name="path" d="M15,14.1a5.2,5.2,0,0,0,3.5-4.9V4.6A4.055,4.055,0,0,0,14.4.5H12.2A4.14,4.14,0,0,0,8,4.6V9.2a5.2,5.2,0,0,0,3.5,4.9" fill="none" stroke="#f26e22" stroke-linecap="round" stroke-linejoin="round" stroke-miterlimit="10" stroke-width="1"/>
    <path id="path-4" data-name="path" d="M4.6,11.3v2.4L.5,15.6" fill="none" stroke="#f26e22" stroke-linecap="round" stroke-linejoin="round" stroke-miterlimit="10" stroke-width="1"/>
    <path id="path-5" data-name="path" d="M6.9.5H6.1A3.372,3.372,0,0,0,2.7,3.9V7.6a4.249,4.249,0,0,0,2.8,4" fill="none" stroke="#f26e22" stroke-linecap="round" stroke-linejoin="round" stroke-miterlimit="10" stroke-width="1"/>
  </g>
</svg>
