<svg xmlns="http://www.w3.org/2000/svg" width="44.028" height="44.026" viewBox="0 0 44.028 44.026">
  <g id="museums" transform="translate(1.014 1.026)">
    <g id="iconfinder_Theatre_605496" transform="translate(0 0)" opacity="0.7">
      <path id="Path_1231" data-name="Path 1231" d="M38.569,36.5H17.8a.976.976,0,0,1-.383-1.826l18.369-9.46a3.26,3.26,0,0,1,3.008,0l18.37,9.46a.976.976,0,0,1-.383,1.826H53.946" transform="translate(-16.291 -24.847)" fill="none" stroke="#00aeef" stroke-linecap="round" stroke-linejoin="round" stroke-miterlimit="10" stroke-width="2"/>
      <line id="Line_3" data-name="Line 3" x1="1.432" transform="translate(26.147 12.713)" fill="none" stroke="#00aeef" stroke-linecap="round" stroke-linejoin="round" stroke-miterlimit="10" stroke-width="2"/>
      <line id="Line_4" data-name="Line 4" y1="20.173" transform="translate(4.711 14.39)" fill="none" stroke="#00aeef" stroke-linecap="round" stroke-linejoin="round" stroke-miterlimit="10" stroke-width="2"/>
      <line id="Line_5" data-name="Line 5" y2="20.173" transform="translate(37.108 14.39)" fill="none" stroke="#00aeef" stroke-linecap="round" stroke-linejoin="round" stroke-miterlimit="10" stroke-width="2"/>
      <path id="Path_1232" data-name="Path 1232" d="M56.349,98.764H17a1.434,1.434,0,0,1-1.224-2l1.105-2.882A1.329,1.329,0,0,1,18.11,93H55.244a1.33,1.33,0,0,1,1.224.887l1.105,2.882A1.434,1.434,0,0,1,56.349,98.764Z" transform="translate(-15.677 -56.764)" fill="none" stroke="#00aeef" stroke-linecap="round" stroke-linejoin="round" stroke-miterlimit="10" stroke-width="2"/>
      <path id="Path_1233" data-name="Path 1233" d="M37,73.92V59.991a2.96,2.96,0,0,1,3.032-2.882h0a2.96,2.96,0,0,1,3.032,2.882V73.92" transform="translate(-27.768 -39.111)" fill="none" stroke="#00aeef" stroke-linecap="round" stroke-linejoin="round" stroke-miterlimit="10" stroke-width="2"/>
      <path id="Path_1234" data-name="Path 1234" d="M77,73.92V59.991a2.96,2.96,0,0,1,3.032-2.882h0a2.96,2.96,0,0,1,3.032,2.882V73.92" transform="translate(-50.451 -39.111)" fill="none" stroke="#00aeef" stroke-linecap="round" stroke-linejoin="round" stroke-miterlimit="10" stroke-width="2"/>
      <path id="Path_1235" data-name="Path 1235" d="M57,73.92V59.991a2.96,2.96,0,0,1,3.032-2.882h0a2.96,2.96,0,0,1,3.032,2.882V73.92" transform="translate(-39.109 -39.111)" fill="none" stroke="#00aeef" stroke-linecap="round" stroke-linejoin="round" stroke-miterlimit="10" stroke-width="2"/>
    </g>
  </g>
</svg>
