<svg xmlns="http://www.w3.org/2000/svg" width="47.097" height="47.437" viewBox="0 0 47.097 47.437">
  <g id="nightlife" transform="translate(1.048 1.004)">
    <g id="iconfinder_lifestyle_465066" transform="translate(-34.41 -4.764)" opacity="0.7">
      <path id="Path_1239" data-name="Path 1239" d="M228.139,79.3c.011-.153.044-.305.044-.458a4.841,4.841,0,0,0-9.682,0c0,.164.033.305.044.458Z" transform="translate(-164.018 -65.946)" fill="#d5e0f2" stroke="#009eff" stroke-width="2"/>
      <path id="Path_1240" data-name="Path 1240" d="M67.987,13.188H36.525c-1.88,0-2.821,1.9-1.493,3.015L55.118,32.989V47.152H47.032a1.547,1.547,0,1,0,0,3.045H66.777a1.547,1.547,0,1,0,0-3.045H58.691V32.979l20.1-16.786c1.328-1.11.388-3.015-1.493-3.015H73.1c7.207-5.552,6.557-9.041,3.1-8.321C74.291,5.237,70.8,7.791,67.987,13.188Z" transform="translate(0 0)" fill="#d5e0f2" stroke="#009eff" stroke-width="2"/>
    </g>
  </g>
</svg>
