<svg id="partner" xmlns="http://www.w3.org/2000/svg" width="55" height="55" viewBox="0 0 55 55">
  <g id="XMLID_15867_">
    <path id="XMLID_15868_" d="M278.367,169.925a8.411,8.411,0,0,0,4.274,7.332,8.433,8.433,0,1,0-4.274-7.332Z" transform="translate(-247.568 -154.16)" fill="#aab7bf"/>
    <path id="XMLID_15869_" d="M145.147,131.142a8.429,8.429,0,1,0-8.267-6.749A8.446,8.446,0,0,0,145.147,131.142Z" transform="translate(-127.632 -114.269)" fill="#aab7bf"/>
    <path id="XMLID_15871_" d="M369.032,243.3c-.041.064-.084.126-.127.189-.028.041-.055.083-.084.124-.045.064-.092.127-.138.189-.028.038-.055.076-.084.114-.051.067-.1.133-.158.2-.025.031-.049.064-.075.095-.069.084-.14.167-.212.248l-.031.036q-.124.14-.254.275l-.063.064c-.066.068-.132.135-.2.2-.033.032-.067.063-.1.094-.057.054-.113.107-.172.16-.038.035-.078.068-.117.1-.055.048-.109.1-.165.142s-.084.068-.127.1-.108.088-.164.13-.089.067-.134.1-.109.082-.165.122-.094.064-.14.1-.11.076-.166.113l-.147.093c-.047.029-.093.06-.14.089h.353c.179,0,.358.006.536.014l.107.005q.258.014.515.039l.093.01q.243.026.484.061l.057.008c.171.026.34.057.509.091l.108.022q.252.052.5.115l.063.017q.232.061.462.131l.082.025q.243.076.482.163l.1.036c.162.061.324.124.484.191l.013.006c.157.067.311.138.465.211l.089.043q.228.112.451.233l.08.044c.144.08.286.162.427.248l.034.02c.147.09.291.185.434.281l.086.059q.211.146.416.3l.054.042q.192.148.378.3l.057.047q.2.166.385.342l.075.07c.127.12.253.242.375.368l0,0A10.218,10.218,0,0,0,369.741,242c-.025.055-.051.108-.077.162s-.046.1-.07.149c-.032.066-.067.13-.1.2-.025.048-.049.1-.075.143-.035.065-.072.129-.109.193-.026.046-.052.092-.079.138-.038.064-.078.127-.117.19C369.087,243.214,369.06,243.258,369.032,243.3Z" transform="translate(-321.494 -221.53)" fill="#aab7bf"/>
    <path id="XMLID_15872_" d="M109.937,238.2h2.193l-.045-.029c-.081-.05-.162-.1-.242-.155-.044-.029-.088-.057-.131-.086-.1-.067-.2-.137-.291-.207l-.069-.05q-.178-.133-.349-.273c-.032-.026-.062-.054-.094-.08-.082-.069-.163-.137-.242-.209-.041-.037-.081-.075-.122-.113-.068-.063-.136-.126-.2-.191-.043-.042-.085-.085-.126-.128-.062-.063-.124-.126-.184-.191-.042-.045-.083-.09-.124-.136q-.088-.1-.173-.2c-.04-.047-.079-.093-.118-.141-.057-.069-.112-.139-.167-.209-.036-.047-.074-.094-.109-.142-.056-.075-.111-.151-.165-.228-.032-.045-.064-.089-.095-.135-.061-.09-.12-.182-.178-.274-.021-.034-.044-.067-.065-.1q-.118-.191-.227-.388l-.033-.062c-.061-.111-.119-.223-.176-.336-.023-.045-.043-.092-.065-.138-.043-.09-.086-.18-.126-.272-.024-.053-.045-.108-.068-.162-.036-.086-.071-.172-.1-.259-.022-.057-.043-.115-.064-.173-.031-.086-.061-.172-.09-.259-.02-.059-.039-.119-.058-.179q-.041-.131-.078-.265c-.01-.037-.023-.074-.033-.112H87.954a10.28,10.28,0,0,0-10.268,10.269v24.924h5.882V251.744a.723.723,0,0,1,1.446,0v15.764H98.222v-17.6A11.728,11.728,0,0,1,109.937,238.2Z" transform="translate(-77.685 -212.509)" fill="#aab7bf"/>
    <path id="XMLID_15873_" d="M250.993,284.129a10.255,10.255,0,0,0-8.558-4.594H229.611A10.28,10.28,0,0,0,219.343,289.8v17.6h5.881V291.636a.723.723,0,1,1,1.446,0V307.4h18.705V291.636a.723.723,0,1,1,1.446,0V307.4H252.7V289.8A10.218,10.218,0,0,0,250.993,284.129Z" transform="translate(-197.703 -252.4)" fill="#aab7bf"/>
  </g>
</svg>
