<svg xmlns="http://www.w3.org/2000/svg" xmlns:xlink="http://www.w3.org/1999/xlink" width="81.068" height="12.462" viewBox="0 0 81.068 12.462">
  <defs>
    <clipPath id="clip-path">
      <rect width="13.068" height="12.462" fill="none"/>
    </clipPath>
  </defs>
  <g id="rating" transform="translate(-147 -416)">
    <g id="star" transform="translate(147 416)" clip-path="url(#clip-path)">
      <path id="path" d="M12.619,4.474H8.242L6.921.3a.415.415,0,0,0-.784,0L4.774,4.474H.4a.408.408,0,0,0-.248.743L3.7,7.777l-1.362,4.17a.4.4,0,0,0,.619.454l3.551-2.56,3.551,2.56a.4.4,0,0,0,.619-.454L9.316,7.777l3.551-2.56A.408.408,0,0,0,12.619,4.474Z" transform="translate(0.026 -0.025)" fill="#783712"/>
    </g>
    <g id="star-2" data-name="star" transform="translate(164 416)" clip-path="url(#clip-path)">
      <path id="path-2" data-name="path" d="M12.619,4.474H8.242L6.921.3a.415.415,0,0,0-.784,0L4.774,4.474H.4a.408.408,0,0,0-.248.743L3.7,7.777l-1.362,4.17a.4.4,0,0,0,.619.454l3.551-2.56,3.551,2.56a.4.4,0,0,0,.619-.454L9.316,7.777l3.551-2.56A.408.408,0,0,0,12.619,4.474Z" transform="translate(0.026 -0.025)" fill="#783712"/>
    </g>
    <g id="star-3" data-name="star" transform="translate(181 416)" clip-path="url(#clip-path)">
      <path id="path-3" data-name="path" d="M12.619,4.474H8.242L6.921.3a.415.415,0,0,0-.784,0L4.774,4.474H.4a.408.408,0,0,0-.248.743L3.7,7.777l-1.362,4.17a.4.4,0,0,0,.619.454l3.551-2.56,3.551,2.56a.4.4,0,0,0,.619-.454L9.316,7.777l3.551-2.56A.408.408,0,0,0,12.619,4.474Z" transform="translate(0.026 -0.025)" fill="#783712"/>
    </g>
    <g id="star-4" data-name="star" transform="translate(215 416)" clip-path="url(#clip-path)">
      <path id="path-4" data-name="path" d="M12.619,4.474H8.242L6.921.3a.415.415,0,0,0-.784,0L4.774,4.474H.4a.408.408,0,0,0-.248.743L3.7,7.777l-1.362,4.17a.4.4,0,0,0,.619.454l3.551-2.56,3.551,2.56a.4.4,0,0,0,.619-.454L9.316,7.777l3.551-2.56A.408.408,0,0,0,12.619,4.474Z" transform="translate(0.026 -0.025)" fill="#783712" opacity="0.4"/>
    </g>
    <g id="star-5" data-name="star" transform="translate(198 416)" clip-path="url(#clip-path)">
      <path id="path-5" data-name="path" d="M12.619,4.474H8.242L6.921.3a.415.415,0,0,0-.784,0L4.774,4.474H.4a.408.408,0,0,0-.248.743L3.7,7.777l-1.362,4.17a.4.4,0,0,0,.619.454l3.551-2.56,3.551,2.56a.4.4,0,0,0,.619-.454L9.316,7.777l3.551-2.56A.408.408,0,0,0,12.619,4.474Z" transform="translate(0.026 -0.025)" fill="#783712"/>
    </g>
  </g>
</svg>
