<svg xmlns="http://www.w3.org/2000/svg" width="19.875" height="19.98" viewBox="0 0 19.875 19.98">
  <g id="settings" transform="translate(0.5 0.5)">
    <path id="path" d="M18.7,15.7,11.1,8.1A4.638,4.638,0,0,0,11.5,6,5.549,5.549,0,0,0,6,.5a4.618,4.618,0,0,0-2.6.7L7.3,5.1,5.1,7.3,1.2,3.4A4.618,4.618,0,0,0,.5,6,5.549,5.549,0,0,0,6,11.5a5.222,5.222,0,0,0,2.1-.4l7.6,7.6a2.175,2.175,0,0,0,3,0h0A2,2,0,0,0,18.7,15.7Z" transform="translate(-0.5 -0.5)" fill="none" stroke="#5887f9" stroke-linecap="round" stroke-linejoin="round" stroke-miterlimit="10" stroke-width="1"/>
  </g>
</svg>
