<svg id="Theatre" xmlns="http://www.w3.org/2000/svg" width="40" height="40" viewBox="0 0 40 40">
  <path id="Path_1224" data-name="Path 1224" d="M18.795,27.388l.006-.009c-4.858-.269-8.71-3.679-8.71-7.849V3.7c.038-.421.308-1.246,1.847-1.246H26.5A2.15,2.15,0,0,1,28.73,4.712V10.2a1.229,1.229,0,0,0,1.332,1.28h.444a1.136,1.136,0,0,0,1.1-1.3V1.151A1.176,1.176,0,0,0,30.336.083H8.483A1.175,1.175,0,0,0,7.219,1.151V19.629c0,5.61,5.323,10.168,11.927,10.287a1.141,1.141,0,0,0,1.146-1.241v-.228C20.292,27.285,18.795,27.388,18.795,27.388Z" transform="translate(-7.219 -0.083)" fill="#009eff"/>
  <path id="Path_1225" data-name="Path 1225" d="M40.331,47.242c-2.76,0-5.06,1.172-5.6,2.731-.009.038-.161.733.575.365.01,0,.016,0,.025-.006a10.3,10.3,0,0,1,5-1.2,10.176,10.176,0,0,1,5.209,1.313s0,0,0,0c.349.189.445.075.461-.075C45.745,48.622,43.32,47.242,40.331,47.242Z" transform="translate(-12.523 -17.691)" fill="#009eff"/>
  <path id="Path_1226" data-name="Path 1226" d="M37.967,35.434c.344-.284,0-.676-.056-.736-2.13-1.625-4.436-.535-5.419.085-.055.043-.383.318-.112.571C34.659,36.753,36.318,36.559,37.967,35.434Z" transform="translate(-12.053 -12.689)" fill="#009eff"/>
  <path id="Path_1227" data-name="Path 1227" d="M43.932,34.789a.392.392,0,0,0-.027.6c1.659,1.161,3.32,1.382,5.606,0,.34-.295-.117-.637-.127-.642A4.627,4.627,0,0,0,43.932,34.789Z" transform="translate(-14.272 -12.694)" fill="#009eff"/>
  <path id="Path_1228" data-name="Path 1228" d="M13.659,14.362c-.009.006-.5.362-.153.676,2.274,1.372,3.929,1.151,5.583,0,.319-.273.022-.579-.066-.657A4.618,4.618,0,0,0,13.659,14.362Z" transform="translate(-8.408 -5.09)" fill="#009eff"/>
  <path id="Path_1229" data-name="Path 1229" d="M25.172,14.285c-.042.037-.52.484-.08.83,1.6,1.075,3.212,1.263,5.4-.033.374-.3-.071-.706-.1-.727A4.635,4.635,0,0,0,25.172,14.285Z" transform="translate(-10.632 -5.089)" fill="#009eff"/>
  <path id="Path_1230" data-name="Path 1230" d="M47.684,20.135H25.831a1.147,1.147,0,0,0-1.264.982v4.238a.671.671,0,0,1-.473.579,11.53,11.53,0,0,1-2.306.246,10.315,10.315,0,0,1-4.966-1.187L16.816,25s-.775-.288-.595.4c.576,1.529,2.842,2.676,5.563,2.679a8.733,8.733,0,0,0,2.258-.293l0,0,.03-.012c.046-.013.09-.028.136-.039.155-.03.362-.014.362.293V38.1c0,5.225,5.464,9.467,12.191,9.467S48.951,43.327,48.951,38.1V21.117A1.151,1.151,0,0,0,47.684,20.135Zm-1.605,4.893V38.013c0,3.993-4.169,7.237-9.32,7.237s-9.321-3.244-9.321-7.237V23.462c.038-.387.309-1.145,1.847-1.145H43.849a2.1,2.1,0,0,1,2.229,2.074Z" transform="translate(-8.951 -7.57)" fill="#009eff"/>
</svg>
